<?xml version="1.0" encoding="utf-8"?>
<!-- Generator: Adobe Illustrator 25.3.1, SVG Export Plug-In . SVG Version: 6.00 Build 0)  -->
<svg version="1.1" id="Layer_1" xmlns="http://www.w3.org/2000/svg" xmlns:xlink="http://www.w3.org/1999/xlink" x="0px" y="0px"
	 viewBox="0 0 290 290" style="enable-background:new 0 0 290 290;" xml:space="preserve">
<style type="text/css">
	.st0{fill:#FFF123;}
</style>
<g>
	<g>
		<g>
			<path class="st0" d="M26.2,249.5l0.1-124.8l237.5-84.2l-0.1,124.8L26.2,249.5z M31.5,128.4v113.8l227.1-80.5V47.9L31.5,128.4z"/>
		</g>
	</g>
	<g>
		<g>
			<polygon class="st0" points="43.2,137.3 43.2,224.9 75.3,213.5 75.3,125.9 			"/>
		</g>
		<g>
			<polygon class="st0" points="246.8,65.1 215.2,76.4 215.2,164 246.8,152.8 			"/>
		</g>
		<g>
			<polygon class="st0" points="135.6,104.5 103.9,115.8 103.9,146.9 135.6,187.1 			"/>
		</g>
		<g>
			<polygon class="st0" points="209.6,78.3 177.9,89.6 177.9,120.7 209.6,160.9 			"/>
		</g>
		<g>
			<polygon class="st0" points="80.9,178.8 101.1,204.4 133,193.1 80.9,127.3 			"/>
		</g>
		<g>
			<polygon class="st0" points="141.1,102.5 141.1,135.3 153.6,150.9 141.1,155.4 141.1,178.5 167.9,169 175,178.1 207.1,166.7 
				153,98.3 			"/>
		</g>
	</g>
</g>
</svg>
