<?xml version="1.0" encoding="utf-8"?>
<!-- Generator: Adobe Illustrator 25.0.1, SVG Export Plug-In . SVG Version: 6.00 Build 0)  -->
<svg version="1.1" id="Layer_1" xmlns="http://www.w3.org/2000/svg" xmlns:xlink="http://www.w3.org/1999/xlink" x="0px" y="0px"
	 viewBox="0 0 290 290" style="enable-background:new 0 0 290 290;" xml:space="preserve">
<style type="text/css">
	.st0{fill:#FFC629;}
	.st1{fill:#FFFFFF;}
</style>
<g>
	<g>
		<path d="M245,113.6c11.3-21.3,12.1-47.7,2.1-70.6c-7.2-16.5-18.8-28.4-31-31.6l-6.7-1.8l-40.1,114.3L145,86.1l-24.3,37.8L80.6,9.5
			l-6.7,1.8c-12.2,3.3-23.8,15.1-31,31.6c-10,22.9-9.2,49.4,2.1,70.6c2.4,4.6,6,10.8,9.9,17.6h-13l3.7,35.7l31.8,18.9l-6,3.9
			l-3.2,49.4H87l7.2-34.1l3.8-1.6l2.1,0.3l44.9,76.6l44.4-76.6l2.5-0.3l3.8,1.6l7.2,34.1h18.9l-3.2-49.4l-6-3.9l31.8-18.9l3.7-35.7
			h-13C239.1,124.5,242.6,118.2,245,113.6z M52.6,162.5l-2.5-23.8h4.9l6.8,18.1l11,7.3l9.7,16.2L52.6,162.5z M89.9,176
			c0,0-28.4-47.1-38.4-65.8c-20.7-39,1.5-85.5,24.3-91.6l39.4,112.3L89.9,176z M145,265.7L110,206l35,5.5l34.6-5.5L145,265.7z
			 M200.1,176l-25.3-45.1l39.4-112.3c22.8,6.1,45,52.6,24.3,91.6C228.5,128.9,200.1,176,200.1,176z M239.9,138.7l-2.5,23.8
			l-29.9,17.8l9.7-16.2l11-7.3l6.8-18.1H239.9z"/>
		<g>
			<polygon class="st0" points="165.9,132.3 145,99.8 124.1,132.3 145,164.4 			"/>
			<polygon class="st0" points="194.1,182.8 170.6,141.2 145,179.7 119.4,141.2 95.9,182.8 78.5,194 76.1,231.8 81,231.8 
				87.8,199.7 97,195.9 145,202.5 193,195.9 202.2,199.7 209,231.8 213.9,231.8 211.5,194 			"/>
		</g>
	</g>
	<path class="st1" d="M89.9,176c0,0-28.4-47.1-38.4-65.8c-20.7-39,1.5-85.5,24.3-91.6l39.4,112.3L89.9,176z"/>
	<polygon class="st1" points="145,265.7 110,206 145,211.5 179.6,206.1 	"/>
	<path class="st1" d="M200.1,176l-25.3-45.1l39.4-112.3c22.8,6.1,45,52.6,24.3,91.6C228.5,128.9,200.1,176,200.1,176z"/>
	<polygon class="st1" points="52.6,162.5 50.1,138.7 55.1,138.7 61.8,156.8 72.8,164 82.5,180.3 	"/>
	<polygon class="st1" points="239.9,138.7 237.4,162.5 207.5,180.3 217.2,164 228.2,156.8 234.9,138.7 	"/>
</g>
</svg>
